<svg width="77" height="87" viewBox="0 0 77 87" fill="none" xmlns="http://www.w3.org/2000/svg">
<path d="M38.4073 0.0892064C41.3852 0.0522407 44.3411 0.583686 47.1035 1.6527C49.8658 2.72172 52.3796 4.30702 54.4991 6.31662C56.6185 8.32622 58.3013 10.7201 59.4499 13.3593C60.5984 15.9986 61.1899 18.8307 61.1899 21.6912C61.1899 24.5517 60.5984 27.3838 59.4499 30.023C58.3013 32.6623 56.6185 35.0562 54.4991 37.0658C52.3796 39.0754 49.8658 40.6607 47.1035 41.7297C44.3411 42.7987 41.3852 43.3302 38.4073 43.2932C32.493 43.2198 26.8467 40.9115 22.6914 36.8684C18.5361 32.8252 16.2061 27.3725 16.2061 21.6912C16.2061 16.0099 18.5361 10.5572 22.6914 6.51403C26.8467 2.47086 32.493 0.162624 38.4073 0.0892064V0.0892064ZM74.9285 47.085H74.8158L57.8117 38.9962C57.2377 38.7269 56.5788 38.677 55.968 38.8564C55.3572 39.0359 54.8401 39.4315 54.5213 39.9631C50.1526 46.9872 44.6991 53.3335 38.3472 58.7853C32.027 53.3469 26.5994 47.0218 22.2483 40.0245C21.9302 39.4922 21.4134 39.0959 20.8025 38.9157C20.1916 38.7355 19.5323 38.7849 18.9579 39.054L1.92377 47.085H1.81108C1.24534 47.4043 0.831519 47.9229 0.65757 48.5305C0.48362 49.1382 0.563256 49.7871 0.879552 50.3393C5.58562 58.1563 11.3307 65.3518 17.9701 71.7447L17.9626 71.7483C18.0527 71.8385 18.1504 71.9215 18.2443 72.0081C19.5026 73.2167 20.7834 74.4037 22.1019 75.5474C22.4061 75.8143 22.7216 76.0669 23.0296 76.3303C24.2128 77.3332 25.4035 78.3326 26.6355 79.2887C27.1764 79.7108 27.7436 80.1077 28.292 80.519C29.3325 81.2983 30.3654 82.0848 31.4359 82.8244C33.0886 83.9717 34.7714 85.0793 36.4917 86.1328C37.0549 86.4773 37.7063 86.6654 38.3739 86.6762C39.0415 86.6871 39.6992 86.5202 40.2742 86.1941C42.1034 85.0685 43.8876 83.8851 45.638 82.6584C45.8934 82.478 46.1338 82.2868 46.3892 82.1064C47.7339 81.1467 49.0673 80.169 50.3707 79.148C51.2497 78.4625 52.0985 77.7409 52.955 77.0266C53.5935 76.4962 54.232 75.9767 54.8556 75.4319C55.9636 74.465 57.0341 73.4656 58.1009 72.4554C58.33 72.239 58.5779 72.0297 58.8071 71.8096L58.792 71.8024C65.4554 65.395 71.2197 58.1797 75.9389 50.3393C76.2487 49.778 76.3164 49.1223 76.1274 48.5135C75.9384 47.9047 75.5078 47.3916 74.9285 47.085V47.085Z" fill="#6A6A6A"/>
</svg>
