<?xml version="1.0" standalone="no"?>
<!DOCTYPE svg PUBLIC "-//W3C//DTD SVG 20010904//EN"
 "http://www.w3.org/TR/2001/REC-SVG-20010904/DTD/svg10.dtd">
<svg version="1.0" xmlns="http://www.w3.org/2000/svg"
 width="160.000000pt" height="110.000000pt" viewBox="0 0 579.000000 106.000000"
 preserveAspectRatio="xMidYMid meet">

<g transform="translate(0.000000,106.000000) scale(0.100000,-0.100000)"
fill="orangered" stroke="none">
<path d="M3234 846 c-93 -23 -165 -84 -207 -175 -18 -40 -21 -65 -21 -181 0
-117 3 -141 21 -182 31 -67 95 -132 156 -159 60 -27 183 -32 253 -11 57 17
128 74 159 126 37 63 58 175 51 263 -17 184 -90 285 -233 319 -70 16 -111 16
-179 0z m156 -214 c93 -94 48 -312 -65 -312 -92 0 -140 104 -112 242 18 90
117 129 177 70z"/>
<path d="M231 836 c-8 -9 -11 -112 -9 -357 l3 -344 90 0 90 0 3 122 c2 112 4
123 21 123 14 0 30 -27 66 -113 27 -61 54 -119 61 -126 22 -24 80 -16 134 19
28 18 55 40 59 49 7 12 -8 45 -56 125 l-66 108 28 25 c88 82 86 268 -3 331
-50 36 -134 52 -278 52 -99 0 -134 -3 -143 -14z m263 -187 c44 -34 28 -109
-27 -129 -55 -19 -57 -17 -57 70 l0 80 29 0 c15 0 40 -9 55 -21z"/>
<path d="M835 837 c-3 -6 -4 -167 -3 -357 l3 -345 194 -3 c149 -2 196 1 203
10 14 23 9 144 -6 158 -10 7 -45 10 -105 8 l-91 -3 0 55 0 55 64 -3 c57 -3 66
-1 76 17 6 12 10 45 8 74 l-3 52 -72 3 -73 3 0 54 0 55 99 0 c113 0 111 -2
111 90 0 96 14 90 -206 90 -147 0 -196 -3 -199 -13z"/>
<path d="M1350 831 c-5 -11 -10 -45 -10 -76 0 -92 4 -95 120 -95 55 0 100 -2
100 -5 0 -3 -51 -85 -113 -182 -63 -98 -117 -183 -120 -190 -7 -12 27 -117 46
-140 7 -10 62 -13 212 -13 173 0 204 2 216 16 17 21 24 121 10 156 -10 28 -11
28 -111 28 -55 0 -100 2 -100 5 0 3 54 88 120 189 l120 182 -14 54 c-23 89
-26 90 -262 90 -191 0 -204 -1 -214 -19z"/>
<path d="M1930 831 c-5 -11 -10 -45 -10 -76 0 -92 4 -95 125 -95 l104 0 -28
-42 c-130 -195 -211 -331 -211 -356 0 -15 11 -51 25 -79 l24 -53 204 0 c237 0
229 -3 235 95 7 99 0 105 -118 105 -55 0 -100 2 -100 5 0 3 51 83 113 177 62
95 116 178 120 184 11 19 -20 117 -43 136 -20 16 -45 18 -226 18 -191 0 -204
-1 -214 -19z"/>
<path d="M2462 833 c-12 -31 -8 -139 7 -157 10 -11 30 -16 72 -16 l59 0 0
-259 c0 -227 2 -260 16 -265 29 -11 169 -7 182 6 9 9 12 82 12 265 l0 253 60
0 c71 0 80 10 80 99 0 98 20 91 -246 91 -214 0 -235 -2 -242 -17z"/>
<path d="M3741 832 c-7 -14 -11 -133 -11 -355 0 -382 -10 -347 100 -347 105 0
100 -6 100 132 0 107 2 119 17 116 11 -2 33 -41 63 -108 55 -127 56 -129 87
-141 18 -7 35 -4 66 9 45 20 107 68 107 82 0 5 -28 55 -62 111 -41 68 -58 106
-52 114 76 101 95 172 70 258 -17 59 -52 97 -111 123 -31 14 -76 19 -202 22
-154 4 -162 3 -172 -16z m269 -182 c21 -21 26 -69 10 -100 -8 -16 -58 -40 -81
-40 -5 0 -9 36 -9 80 l0 80 30 0 c17 0 39 -9 50 -20z"/>
<path d="M4498 838 c-9 -8 -50 -150 -103 -352 -71 -275 -85 -340 -74 -347 16
-10 113 -10 148 0 18 5 27 17 34 41 4 19 13 52 18 73 l10 37 82 0 83 0 18 -70
c11 -45 24 -74 36 -80 21 -11 156 -12 181 -2 13 6 3 54 -73 351 -48 190 -93
348 -100 353 -22 13 -242 10 -260 -4z m146 -317 l23 -101 -53 0 c-37 0 -54 4
-54 13 0 10 27 118 46 180 9 29 14 16 38 -92z"/>
<path d="M5028 844 c-5 -4 -8 -164 -8 -355 0 -307 2 -348 16 -353 28 -11 150
-6 162 6 8 8 12 60 12 167 l0 156 86 -162 c61 -114 93 -163 108 -167 28 -8
106 -7 145 0 l31 7 0 347 0 348 -22 6 c-30 7 -116 7 -145 0 -23 -6 -23 -9 -23
-173 l0 -166 -81 155 c-44 85 -87 161 -95 169 -15 16 -173 29 -186 15z"/>
</g>
</svg>
