<?xml version="1.0" standalone="no"?>
<!DOCTYPE svg PUBLIC "-//W3C//DTD SVG 20010904//EN"
 "http://www.w3.org/TR/2001/REC-SVG-20010904/DTD/svg10.dtd">
<svg version="1.0" xmlns="http://www.w3.org/2000/svg"
 width="400.000000pt" height="400.000000pt" viewBox="0 0 670.000000 670.000000"
 preserveAspectRatio="xMidYMid meet">

<g transform="translate(0.000000,670.000000) scale(0.100000,-0.100000)"
fill="#ddd" stroke="none">
<path d="M2459 4766 c-168 -70 -282 -149 -416 -290 -131 -136 -276 -366 -323
-509 -14 -45 -1 -70 37 -65 19 2 32 21 68 103 148 329 380 569 657 681 98 39
105 45 90 79 -14 31 -39 32 -113 1z"/>
<path d="M3189 4647 c-35 -56 -42 -82 -29 -107 9 -17 21 -20 80 -20 l70 0 0
-43 0 -44 -97 -7 c-176 -11 -351 -69 -478 -156 -205 -141 -393 -418 -451 -662
-21 -92 -51 -145 -108 -191 -55 -46 -86 -107 -86 -172 0 -44 4 -52 45 -92 l45
-43 1214 0 1213 0 43 38 c37 33 43 44 47 88 6 64 -28 137 -86 183 -54 43 -79
87 -102 176 -40 160 -122 325 -229 460 -186 232 -412 352 -702 371 l-98 7 0
44 0 43 70 0 c59 0 71 3 80 20 13 25 6 51 -29 107 l-26 43 -180 0 -180 0 -26
-43z m-165 -486 c-91 -91 -212 -328 -286 -563 -33 -102 -34 -104 -114 -183
-44 -44 -88 -91 -97 -105 -15 -21 -26 -25 -84 -28 -48 -2 -74 1 -87 11 -18 13
-17 15 12 56 19 26 51 103 83 199 110 334 189 448 392 562 61 34 206 100 221
100 5 0 -13 -22 -40 -49z"/>
<path d="M2410 4512 c-85 -42 -138 -83 -220 -168 -120 -127 -236 -317 -214
-352 6 -9 22 -17 34 -17 19 0 33 17 74 88 112 192 215 300 350 368 92 45 110
63 95 90 -14 26 -53 23 -119 -9z"/>
<path d="M2375 3001 c-165 -3 -306 -10 -313 -14 -7 -5 -26 -35 -42 -68 -17
-32 -34 -59 -40 -59 -21 0 -129 -113 -145 -152 -30 -76 -3 -158 71 -214 l37
-29 1452 0 1452 0 37 29 c71 54 101 141 72 209 -18 43 -79 113 -127 143 -24
15 -45 41 -62 78 -14 30 -36 60 -48 66 -24 14 -1815 22 -2344 11z m-35 -195
c0 -7 -7 -19 -15 -26 -8 -7 -31 -39 -51 -71 l-35 -59 -82 0 c-108 0 -119 8
-83 55 15 20 45 54 65 76 l38 39 81 0 c63 0 82 -3 82 -14z"/>
<path d="M1860 2036 c0 -128 1 -136 19 -136 17 0 20 8 23 53 3 45 6 52 25 55
19 3 27 -7 50 -52 21 -43 32 -56 50 -56 20 0 21 3 13 25 -5 14 -17 39 -25 55
-15 29 -15 32 5 57 26 34 26 84 -1 109 -15 13 -40 20 -90 22 l-69 4 0 -136z
m121 84 c44 -24 11 -70 -50 -70 -28 0 -31 3 -31 33 0 19 3 37 7 40 10 10 52 8
74 -3z"/>
<path d="M2248 2066 c-2 -57 -1 -117 2 -132 5 -29 6 -29 83 -32 71 -3 78 -1
75 15 -3 14 -15 19 -61 21 l-57 3 0 34 c0 33 1 34 48 37 34 2 47 7 47 18 0 11
-13 16 -47 18 -47 3 -48 4 -48 38 l0 34 59 0 c45 0 60 4 65 16 11 28 -4 34
-84 34 l-79 0 -3 -104z"/>
<path d="M2600 2150 c0 -18 7 -20 55 -20 30 0 55 -2 55 -5 0 -3 -27 -47 -60
-97 -79 -120 -77 -128 36 -128 77 0 84 2 84 20 0 18 -7 20 -55 20 -30 0 -55 3
-55 7 0 3 25 48 55 98 30 51 55 100 55 109 0 13 -13 16 -85 16 -78 0 -85 -2
-85 -20z"/>
<path d="M2957 2163 c-4 -3 -7 -12 -7 -20 0 -9 16 -13 55 -13 30 0 55 -3 55
-7 -1 -5 -27 -48 -59 -97 -78 -117 -75 -126 35 -126 77 0 84 2 84 20 0 18 -7
20 -55 20 -59 0 -63 4 -40 37 33 47 95 163 95 178 0 12 -15 15 -78 15 -43 0
-82 -3 -85 -7z"/>
<path d="M3292 2148 c2 -17 11 -24 30 -26 l27 -3 3 -107 c3 -102 4 -107 26
-110 22 -3 22 -2 22 107 l0 110 28 3 c19 2 28 9 30 26 3 21 1 22 -83 22 -84 0
-86 -1 -83 -22z"/>
<path d="M3674 2147 c-47 -41 -47 -170 1 -221 27 -29 87 -36 116 -13 64 48 64
212 1 246 -35 19 -89 13 -118 -12z m102 -38 c14 -15 19 -36 19 -76 0 -45 -4
-58 -24 -74 -13 -10 -27 -19 -31 -19 -4 0 -18 9 -31 19 -21 16 -24 28 -24 81
0 49 4 64 19 76 28 20 50 18 72 -7z"/>
<path d="M4047 2163 c-4 -3 -7 -64 -7 -135 0 -120 1 -128 19 -128 17 0 20 8
23 53 3 48 5 52 28 52 20 0 31 -11 53 -52 19 -36 35 -53 48 -53 24 0 24 -4 -6
63 -21 50 -22 57 -8 68 45 38 34 110 -19 128 -34 12 -121 15 -131 4z m127 -52
c17 -18 17 -20 -4 -41 -30 -30 -84 -25 -88 8 -2 13 -1 30 2 38 8 21 69 18 90
-5z"/>
<path d="M4495 2160 c-8 -13 -85 -241 -85 -252 0 -20 41 -6 50 17 8 22 15 25
58 25 42 0 50 -3 60 -25 10 -23 52 -37 52 -17 0 4 -22 63 -49 132 -46 118 -68
149 -86 120z m55 -157 c0 -8 -13 -13 -34 -13 l-35 0 16 47 16 46 18 -34 c10
-19 18 -40 19 -46z"/>
<path d="M4817 2163 c-2 -5 -3 -64 -3 -133 1 -121 2 -125 23 -128 21 -3 22 1
25 75 l3 78 49 -77 c32 -53 54 -78 67 -78 18 0 19 9 19 136 0 124 -2 135 -17
132 -15 -3 -19 -17 -23 -83 l-5 -80 -52 83 c-47 73 -74 97 -86 75z"/>
</g>
</svg>
