<?xml version="1.0" standalone="no"?>
<!DOCTYPE svg PUBLIC "-//W3C//DTD SVG 20010904//EN"
 "http://www.w3.org/TR/2001/REC-SVG-20010904/DTD/svg10.dtd">
<svg version="1.0" xmlns="http://www.w3.org/2000/svg"
 width="90.000000pt" height="120.000000pt" viewBox="0 0 1200.000000 1200.000000"
 preserveAspectRatio="xMidYMid meet">

<g transform="translate(0.000000,1200.000000) scale(0.100000,-0.100000)"
fill="orangered" stroke="none">
<path d="M3345 9586 c-655 -234 -1223 -667 -1712 -1306 -180 -236 -365 -536
-503 -817 -156 -317 -216 -478 -200 -534 21 -72 98 -115 160 -89 48 20 73 59
125 191 63 161 232 498 336 669 470 776 1060 1313 1757 1598 64 27 150 59 191
73 116 37 161 102 128 182 -38 89 -103 97 -282 33z"/>
<path d="M5592 9258 c-149 -202 -192 -358 -120 -435 21 -23 24 -23 240 -23
l218 0 0 -150 0 -150 -167 0 c-365 0 -707 -60 -1033 -182 -598 -223 -1103
-644 -1505 -1253 -241 -365 -435 -790 -509 -1115 -8 -36 -24 -105 -35 -155
-42 -181 -118 -295 -308 -459 -123 -106 -137 -125 -212 -281 -47 -98 -61 -153
-61 -243 0 -120 36 -199 140 -302 55 -56 95 -86 151 -113 l76 -37 3728 0 3728
0 80 43 c108 56 203 150 248 243 31 64 33 76 32 169 -1 118 -15 166 -98 320
-52 98 -60 107 -165 194 -60 50 -134 121 -164 157 -68 82 -129 205 -150 299
-61 280 -104 420 -194 630 -150 348 -366 706 -596 986 -91 110 -338 357 -446
445 -530 435 -1151 654 -1851 654 l-170 0 3 148 3 147 220 5 c121 3 226 9 233
13 6 5 19 22 28 39 40 77 -10 221 -138 400 l-63 88 -541 0 -541 0 -61 -82z
m-387 -1444 c-234 -122 -538 -577 -805 -1204 -129 -304 -181 -441 -296 -788
-40 -123 -79 -233 -86 -245 -42 -79 -192 -236 -279 -290 -68 -44 -147 -128
-239 -256 -81 -113 -64 -106 -285 -118 -149 -7 -257 8 -292 43 -31 31 -29 53
10 100 124 147 164 242 368 874 115 358 271 708 404 910 154 231 399 452 710
637 197 117 466 243 680 317 108 38 163 48 110 20z"/>
<path d="M3280 8834 c-105 -35 -318 -142 -425 -213 -337 -224 -658 -580 -924
-1026 -122 -205 -194 -354 -194 -404 0 -71 53 -124 124 -124 62 0 87 26 162
169 295 562 659 987 1044 1218 72 43 230 117 288 136 107 34 145 73 145 148 0
47 -29 88 -76 108 -44 19 -57 18 -144 -12z"/>
<path d="M3570 4048 l-1445 -8 -49 -22 c-67 -31 -128 -102 -166 -196 -66 -159
-111 -218 -204 -271 -80 -45 -195 -141 -256 -215 -71 -87 -145 -205 -161 -261
-7 -25 -17 -45 -21 -45 -12 0 -10 -158 2 -165 6 -3 10 -17 10 -31 0 -44 59
-180 110 -252 58 -82 175 -176 265 -212 33 -13 64 -27 70 -32 13 -12 8921 -10
8943 1 9 6 41 21 70 35 192 92 313 237 362 434 27 106 26 193 -3 268 -72 180
-210 340 -406 469 -115 75 -152 123 -214 271 -45 109 -90 165 -160 197 l-52
24 -1025 7 c-1695 12 -4136 13 -5670 4z m-782 -575 c72 -5 86 -9 98 -29 20
-29 11 -45 -70 -139 -34 -39 -101 -136 -150 -217 l-90 -145 -74 -7 c-167 -14
-394 -2 -477 26 -30 10 -40 18 -40 35 0 24 184 251 301 370 74 76 101 92 174
103 60 10 226 11 328 3z"/>
</g>
</svg>